<svg width="88" height="50" viewBox="0 0 88 50" fill="none" xmlns="http://www.w3.org/2000/svg">
<rect x="61" y="24" width="14" height="6" fill="#FCD9D9"/>
<rect x="14" y="24" width="16" height="6" fill="#FCD9D9"/>
<path d="M38.3022 48.3942V39.2419H39.3183C39.3352 35.5748 41.2913 33.0124 45.1867 31.5547" stroke="#666666" stroke-width="1.19487" stroke-linecap="round" stroke-linejoin="round"/>
<path d="M52.1079 48.3942V39.2419H51.0918C51.0749 35.5748 49.1188 33.0124 45.2235 31.5547" stroke="#666666" stroke-width="1.19487" stroke-linecap="round" stroke-linejoin="round"/>
<path d="M25.2789 41.8442H18.2091V48.4593H25.2789V41.8442Z" fill="#FCD9D9" stroke="#666666" stroke-width="1.19487"/>
<path d="M16.8781 41.8442H26.2432" stroke="#666666" stroke-width="1.19487" stroke-linecap="round"/>
<path d="M18.2643 41.3706C17.9367 38.85 19.0667 37.0479 21.6542 35.9644" stroke="#666666" stroke-width="1.19487" stroke-linecap="round" stroke-linejoin="round"/>
<path d="M25.3204 41.3706C25.648 38.85 24.518 37.0479 21.9305 35.9644" stroke="#666666" stroke-width="1.19487" stroke-linecap="round" stroke-linejoin="round"/>
<path d="M71.8649 41.8442H64.7952V48.4593H71.8649V41.8442Z" fill="#FCD9D9" stroke="#666666" stroke-width="1.19487"/>
<path d="M63.4637 41.8442H72.8289" stroke="#666666" stroke-width="1.19487" stroke-linecap="round"/>
<path d="M64.8504 41.3706C64.5228 38.85 65.6528 37.0479 68.2403 35.9644" stroke="#666666" stroke-width="1.19487" stroke-linecap="round" stroke-linejoin="round"/>
<path d="M71.9063 41.3706C72.2339 38.85 71.104 37.0479 68.5164 35.9644" stroke="#666666" stroke-width="1.19487" stroke-linecap="round" stroke-linejoin="round"/>
<path d="M74.7675 24.2051H13.7443V48.4601H74.7675V24.2051Z" stroke="#666666" stroke-width="1.19487" stroke-linecap="round" stroke-linejoin="round"/>
<path d="M13 24.2051H76.9999" stroke="#666666" stroke-width="1.19487" stroke-linecap="round"/>
<path d="M13 30.0845H76.9999" stroke="#666666" stroke-width="1.19487" stroke-linecap="round"/>
<path d="M14.4879 33.7598H28.8101" stroke="#666666" stroke-width="1.19487" stroke-linecap="round"/>
<path d="M60.6279 33.7598H74.9501" stroke="#666666" stroke-width="1.19487" stroke-linecap="round"/>
<path d="M13 21.8794H76.9999" stroke="#666666" stroke-width="1.19487" stroke-linecap="round"/>
<path d="M61.372 30.0845H53.9302V48.4595H61.372V30.0845Z" fill="#FCD9D9" stroke="#666666" stroke-width="1.19487"/>
<path d="M60.4044 24.2051H55.1951V30.0851H60.4044V24.2051Z" fill="#FCD9D9" stroke="#666666" stroke-width="1.19487"/>
<path d="M35.3259 24.2051H30.1166V30.0851H35.3259V24.2051Z" fill="#FCD9D9" stroke="#666666" stroke-width="1.19487"/>
<path d="M36.4419 30.0845H29V48.4595H36.4419V30.0845Z" fill="#FCD9D9" stroke="#666666" stroke-width="1.19487"/>
<path d="M35.3255 7.1792H30.1162V21.8792H35.3255V7.1792Z" fill="#FCD9D9" stroke="#666666" stroke-width="1.19487"/>
<path fill-rule="evenodd" clip-rule="evenodd" d="M30.1162 7.17915H35.3255L32.7209 3.0249L30.1162 7.17915Z" fill="#FCD9D9" stroke="#666666" stroke-width="1.19487"/>
<path d="M32.7208 3.13682V1" stroke="#666666" stroke-width="1.19487" stroke-linecap="round"/>
<path d="M60.404 7.1792H55.1947V21.8792H60.404V7.1792Z" fill="#FCD9D9" stroke="#666666" stroke-width="1.19487"/>
<path fill-rule="evenodd" clip-rule="evenodd" d="M55.1947 7.17915H60.404L57.7994 3.0249L55.1947 7.17915Z" fill="#FCD9D9" stroke="#666666" stroke-width="1.19487"/>
<path d="M57.7993 3.13682V1" stroke="#666666" stroke-width="1.19487" stroke-linecap="round"/>
<path d="M27.8837 14.5293H62.1162" stroke="#666666" stroke-width="1.19487" stroke-linecap="round"/>
<path d="M35.2936 10.8545H55.1838" stroke="#666666" stroke-width="1.19487" stroke-linecap="round"/>
<path d="M21.9309 39.7352C21.9219 39.6945 21.9535 39.6626 22.0255 39.6396" stroke="#666666" stroke-width="1.19487" stroke-linecap="round" stroke-linejoin="round"/>
<path d="M22.0512 39.7352C22.0602 39.6945 22.0287 39.6626 21.9566 39.6396" stroke="#666666" stroke-width="1.19487" stroke-linecap="round" stroke-linejoin="round"/>
<path d="M68.4985 39.7352C68.5075 39.6945 68.476 39.6626 68.4039 39.6396" stroke="#666666" stroke-width="1.19487" stroke-linecap="round" stroke-linejoin="round"/>
<path d="M37.9302 24.5723V29.7173" stroke="#666666" stroke-width="1.19487" stroke-linecap="square"/>
<path d="M41.6511 24.5723V29.7173" stroke="#666666" stroke-width="1.19487" stroke-linecap="square"/>
<path d="M45.3721 24.5723V29.7173" stroke="#666666" stroke-width="1.19487" stroke-linecap="square"/>
<path d="M49.093 24.5723V29.7173" stroke="#666666" stroke-width="1.19487" stroke-linecap="square"/>
<path d="M52.8138 24.5723V29.7173" stroke="#666666" stroke-width="1.19487" stroke-linecap="square"/>
<line x1="0.597437" y1="48.4026" x2="87.4026" y2="48.4026" stroke="#666666" stroke-width="1.19487" stroke-linecap="round" stroke-linejoin="round"/>
</svg>
