<svg width="88" height="48" viewBox="0 0 88 48" fill="none" xmlns="http://www.w3.org/2000/svg">
<line x1="0.597437" y1="47.4026" x2="87.4026" y2="47.4026" stroke="#666666" stroke-width="1.19487" stroke-linecap="round" stroke-linejoin="round"/>
<path d="M37.1714 12.0443L40.6579 9.50865L44.7255 7.60693L48.7931 9.50865L52.2795 12.6782L52.8606 22.8207H36.0093L37.1714 12.0443Z" fill="#FCD9D9"/>
<rect x="10.4419" y="27.8921" width="4.64865" height="19.0172" fill="#FCD9D9"/>
<rect x="73.1985" y="27.8921" width="4.64864" height="19.0172" fill="#FCD9D9"/>
<rect x="31" y="28.3638" width="28" height="18.5455" fill="#FCD9D9"/>
<path d="M59.2864 28.1455H31.0293V46.9091H59.2864V28.1455Z" stroke="#666666" stroke-width="1.19" stroke-miterlimit="10"/>
<path d="M48.2291 46.9094H40.8577V37.8717C40.8577 35.4613 42.508 33.5068 44.5434 33.5068C46.5787 33.5068 48.2291 35.4613 48.2291 37.8717V46.9094Z" stroke="#666666" stroke-width="1.19" stroke-miterlimit="10"/>
<path d="M44.5445 8.04199C49.2907 8.04199 53.1436 12.3955 53.1436 17.7584V46.9095H35.9436V17.7604C35.9436 12.3975 39.7965 8.04398 44.5427 8.04398L44.5445 8.04199Z" stroke="#666666" stroke-width="1.19" stroke-miterlimit="10"/>
<path d="M12.5992 22.7842C13.9553 22.7842 15.0564 24.0292 15.0564 25.5626V46.9088H10.1421V25.5626C10.1421 24.0292 11.2432 22.7842 12.5992 22.7842Z" stroke="#666666" stroke-width="1.19" stroke-miterlimit="10"/>
<path d="M12.5994 18.7637V22.7844" stroke="#666666" stroke-width="1.19" stroke-miterlimit="10"/>
<path d="M15.0564 37.5269H35.9421" stroke="#666666" stroke-width="1.19" stroke-miterlimit="10"/>
<path d="M23.0421 30.8262C24.7366 30.8262 26.1136 32.3284 26.1136 34.1768V37.5275H19.9707V34.1768C19.9707 32.3284 21.3477 30.8262 23.0421 30.8262Z" stroke="#666666" stroke-width="1.19" stroke-miterlimit="10"/>
<path d="M21.1993 42.8882H19.9707" stroke="#666666" stroke-width="1.19" stroke-miterlimit="10"/>
<path d="M26.1141 42.8882H23.657" stroke="#666666" stroke-width="1.19" stroke-miterlimit="10"/>
<path d="M31.0293 42.8882H35.9436" stroke="#666666" stroke-width="1.19" stroke-miterlimit="10"/>
<path d="M10.1429 46.9092H4" stroke="#666666" stroke-width="1.19" stroke-miterlimit="10"/>
<path d="M15.0564 46.9092H31.0278" stroke="#666666" stroke-width="1.19" stroke-miterlimit="10"/>
<path d="M10.1421 28.1455H15.0564" stroke="#666666" stroke-width="1.19" stroke-miterlimit="10"/>
<path d="M72.8003 46.9088H77.7146V25.5626C77.7146 24.0272 76.6135 22.7842 75.2574 22.7842C73.8996 22.7842 72.8003 24.0292 72.8003 25.5626V46.9088Z" stroke="#666666" stroke-width="1.19" stroke-miterlimit="10"/>
<path d="M75.2573 18.7637V22.7844" stroke="#666666" stroke-width="1.19" stroke-miterlimit="10"/>
<path d="M72.7992 37.5269H53.1421" stroke="#666666" stroke-width="1.19" stroke-miterlimit="10"/>
<path d="M69.115 37.5269H62.9721V34.1762C62.9721 32.3277 64.3491 30.8256 66.0436 30.8256C67.738 30.8256 69.115 32.3277 69.115 34.1762V37.5269Z" stroke="#666666" stroke-width="1.19" stroke-miterlimit="10"/>
<path d="M66.6567 42.8882H69.1139" stroke="#666666" stroke-width="1.19" stroke-miterlimit="10"/>
<path d="M62.9707 42.8882H64.1993" stroke="#666666" stroke-width="1.19" stroke-miterlimit="10"/>
<path d="M77.7144 46.9092H85.0858" stroke="#666666" stroke-width="1.19" stroke-miterlimit="10"/>
<path d="M72.7992 46.9092H58.0564" stroke="#666666" stroke-width="1.19" stroke-miterlimit="10"/>
<path d="M77.7146 28.1455H72.8003" stroke="#666666" stroke-width="1.19" stroke-miterlimit="10"/>
<path d="M35.9436 22.7842H53.1436" stroke="#666666" stroke-width="1.19" stroke-miterlimit="10"/>
<path d="M44.543 8.04155V0" stroke="#666666" stroke-width="1.19" stroke-miterlimit="10"/>
</svg>
