<svg width="88" height="49" viewBox="0 0 88 49" fill="none" xmlns="http://www.w3.org/2000/svg">
<line x1="0.597437" y1="48.4026" x2="87.4026" y2="48.4026" stroke="#666666" stroke-width="1.19487" stroke-linecap="round" stroke-linejoin="round"/>
<path d="M44 7.11768L51.5 12.2941H36L44 7.11768Z" fill="#FCD9D9"/>
<path d="M35.5 13.2939C35.5 12.7417 35.9477 12.2939 36.5 12.2939H51C51.5523 12.2939 52 12.7417 52 13.2939V15.9998C52 16.5521 51.5523 16.9998 51 16.9998H36.5C35.9477 16.9998 35.5 16.5521 35.5 15.9998V13.2939Z" fill="#FCD9D9"/>
<rect x="27" y="23.5884" width="5" height="6.58823" fill="#FCD9D9"/>
<rect x="57" y="23.5884" width="5" height="7.52941" rx="1" fill="#FCD9D9"/>
<rect x="32" y="27.353" width="25" height="3.76471" fill="#FCD9D9"/>
<rect x="24" y="40.5293" width="39" height="7.52941" fill="#FCD9D9"/>
<path d="M63.4951 31.7075H24V47.8692H63.4951V31.7075Z" stroke="#666666" stroke-linecap="round" stroke-linejoin="round"/>
<path fill-rule="evenodd" clip-rule="evenodd" d="M25.5488 30.8994H61.9463L63.4951 32.5156H24L25.5488 30.8994Z" fill="white" stroke="#666666" stroke-linecap="round" stroke-linejoin="round"/>
<path fill-rule="evenodd" clip-rule="evenodd" d="M31.2703 31.1177H54.7297L57 33.9412H29L31.2703 31.1177Z" fill="white" stroke="#666666" stroke-linecap="round" stroke-linejoin="round"/>
<path d="M34.3033 37.3638H31.7275V47.8689H34.3033V37.3638Z" fill="white" stroke="#666666" stroke-linecap="round" stroke-linejoin="round"/>
<path d="M39.4547 37.3638H36.8789V47.8689H39.4547V37.3638Z" fill="white" stroke="#666666" stroke-linecap="round" stroke-linejoin="round"/>
<path d="M45.4644 37.3638H42.8887V47.8689H45.4644V37.3638Z" fill="white" stroke="#666666" stroke-linecap="round" stroke-linejoin="round"/>
<path d="M50.6168 37.3638H48.041V47.8689H50.6168V37.3638Z" fill="white" stroke="#666666" stroke-linecap="round" stroke-linejoin="round"/>
<path d="M55.7682 37.3638H53.1924V47.8689H55.7682V37.3638Z" fill="white" stroke="#666666" stroke-linecap="round" stroke-linejoin="round"/>
<path d="M56.6267 27.667H31.7275V30.8993H56.6267V27.667Z" stroke="#666666" stroke-linecap="round" stroke-linejoin="round"/>
<path d="M54.0518 21.2021H35.1628V27.6668H54.0518V21.2021Z" stroke="#666666" stroke-linecap="round" stroke-linejoin="round"/>
<path fill-rule="evenodd" clip-rule="evenodd" d="M31.9971 30.3415V23.971L31.2148 23.1978H27.4953L26.5762 23.971V30.3415H31.9971Z" stroke="#666666" stroke-linecap="round" stroke-linejoin="round"/>
<path d="M27.8464 22.9381C27.3658 21.9041 27.8203 20.883 29.21 19.875" stroke="#666666" stroke-linecap="round" stroke-linejoin="round"/>
<path d="M30.5726 22.9381C31.0532 21.9041 30.5986 20.883 29.209 19.875" stroke="#666666" stroke-linecap="round" stroke-linejoin="round"/>
<path fill-rule="evenodd" clip-rule="evenodd" d="M61.7785 30.8992V24.4137L61.0351 23.6265H57.5004L56.627 24.4137V30.8992H61.7785Z" stroke="#666666" stroke-linecap="round" stroke-linejoin="round"/>
<path d="M57.6716 22.649C57.191 21.615 57.6455 20.594 59.0352 19.5859" stroke="#666666" stroke-linecap="round" stroke-linejoin="round"/>
<path d="M60.3987 22.649C60.8793 21.615 60.4248 20.594 59.0352 19.5859" stroke="#666666" stroke-linecap="round" stroke-linejoin="round"/>
<path d="M41.5434 16.6473C40.5821 15.1841 41.4912 13.7394 44.2705 12.313" stroke="#666666" stroke-linecap="round" stroke-linejoin="round"/>
<path d="M46.9979 16.6473C47.9591 15.1841 47.0501 13.7394 44.2708 12.313" stroke="#666666" stroke-linecap="round" stroke-linejoin="round"/>
<path fill-rule="evenodd" clip-rule="evenodd" d="M37.6531 21.2021V24.0917V21.2021Z" fill="white"/>
<path d="M37.6531 21.2021V24.0917" stroke="#666666" stroke-linecap="round" stroke-linejoin="round"/>
<path fill-rule="evenodd" clip-rule="evenodd" d="M43.8494 21.2021V24.0917V21.2021Z" fill="white"/>
<path d="M43.8494 21.2021V24.0917" stroke="#666666" stroke-linecap="round" stroke-linejoin="round"/>
<path fill-rule="evenodd" clip-rule="evenodd" d="M40.7507 21.2021V24.0917V21.2021Z" fill="white"/>
<path d="M40.7507 21.2021V24.0917" stroke="#666666" stroke-linecap="round" stroke-linejoin="round"/>
<path fill-rule="evenodd" clip-rule="evenodd" d="M46.9458 21.2021V24.0917V21.2021Z" fill="white"/>
<path d="M46.9458 21.2021V24.0917" stroke="#666666" stroke-linecap="round" stroke-linejoin="round"/>
<path fill-rule="evenodd" clip-rule="evenodd" d="M50.0449 21.2021V24.0917V21.2021Z" fill="white"/>
<path d="M50.0449 21.2021V24.0917" stroke="#666666" stroke-linecap="round" stroke-linejoin="round"/>
<path fill-rule="evenodd" clip-rule="evenodd" d="M35.6846 18.6064V19.3288V18.6064Z" fill="white"/>
<path d="M35.6846 18.6064V19.3288" stroke="#666666" stroke-linecap="round" stroke-linejoin="round"/>
<path fill-rule="evenodd" clip-rule="evenodd" d="M33.3625 18.6064V19.3288V18.6064Z" fill="white"/>
<path d="M33.3625 18.6064V19.3288" stroke="#666666" stroke-linecap="round" stroke-linejoin="round"/>
<path fill-rule="evenodd" clip-rule="evenodd" d="M40.3308 18.6064V19.3288V18.6064Z" fill="white"/>
<path d="M40.3308 18.6064V19.3288" stroke="#666666" stroke-linecap="round" stroke-linejoin="round"/>
<path fill-rule="evenodd" clip-rule="evenodd" d="M44.9775 18.6064V19.3288V18.6064Z" fill="white"/>
<path d="M44.9775 18.6064V19.3288" stroke="#666666" stroke-linecap="round" stroke-linejoin="round"/>
<path fill-rule="evenodd" clip-rule="evenodd" d="M49.624 18.6064V19.3288V18.6064Z" fill="white"/>
<path d="M49.624 18.6064V19.3288" stroke="#666666" stroke-linecap="round" stroke-linejoin="round"/>
<path fill-rule="evenodd" clip-rule="evenodd" d="M38.0088 18.6064V19.3288V18.6064Z" fill="white"/>
<path d="M38.0088 18.6064V19.3288" stroke="#666666" stroke-linecap="round" stroke-linejoin="round"/>
<path fill-rule="evenodd" clip-rule="evenodd" d="M42.6553 18.6064V19.3288V18.6064Z" fill="white"/>
<path d="M42.6553 18.6064V19.3288" stroke="#666666" stroke-linecap="round" stroke-linejoin="round"/>
<path fill-rule="evenodd" clip-rule="evenodd" d="M47.3018 18.6064V19.3288V18.6064Z" fill="white"/>
<path d="M47.3018 18.6064V19.3288" stroke="#666666" stroke-linecap="round" stroke-linejoin="round"/>
<path fill-rule="evenodd" clip-rule="evenodd" d="M51.9482 18.6064V19.3288V18.6064Z" fill="white"/>
<path d="M51.9482 18.6064V19.3288" stroke="#666666" stroke-linecap="round" stroke-linejoin="round"/>
<path fill-rule="evenodd" clip-rule="evenodd" d="M54.2715 18.6064V19.3288V18.6064Z" fill="white"/>
<path d="M54.2715 18.6064V19.3288" stroke="#666666" stroke-linecap="round" stroke-linejoin="round"/>
<path d="M32.9746 18.2451H54.6737" stroke="#666666" stroke-linecap="round"/>
<path d="M52.3335 17.1616H36.0203V18.7778H52.3335V17.1616Z" fill="white" stroke="#666666" stroke-linecap="round" stroke-linejoin="round"/>
<path d="M46.3235 5.84863H42.0305V7.4648H46.3235V5.84863Z" fill="white" stroke="#666666" stroke-linecap="round" stroke-linejoin="round"/>
<path d="M45.4644 4.23242H42.8887V5.84859H45.4644V4.23242Z" fill="white" stroke="#666666" stroke-linecap="round" stroke-linejoin="round"/>
<path d="M35.7666 17.1619C34.0065 13.5517 36.0948 10.5888 42.0316 8.27295" stroke="#666666" stroke-linecap="round" stroke-linejoin="round"/>
<path d="M51.7302 17.1619C53.4904 13.5517 51.4021 10.5888 45.4653 8.27295" stroke="#666666" stroke-linecap="round" stroke-linejoin="round"/>
<path fill-rule="evenodd" clip-rule="evenodd" d="M43.0016 5.04042C42.851 4.66324 42.851 4.05503 43.0016 3.21578C43.1521 2.37654 43.5271 1.63794 44.1265 1C44.7318 1.65726 45.13 2.39586 45.3211 3.21578C45.5122 4.03571 45.5122 4.64392 45.3211 5.04042H43.0016Z" stroke="#666666" stroke-linecap="round" stroke-linejoin="round"/>
<path d="M42.8887 1.87115C41.9311 0.895842 41.3692 0.739472 41.2029 1.40205C41.0366 2.06462 41.5308 3.00805 42.6853 4.23234" stroke="#666666" stroke-linecap="round" stroke-linejoin="round"/>
<path d="M44.6057 1.87115C45.5633 0.895842 46.1252 0.739472 46.2915 1.40205C46.4578 2.06462 45.9636 3.00805 44.809 4.23234" stroke="#666666" stroke-linecap="round" stroke-linejoin="round"/>
</svg>
