<svg width="88" height="50" viewBox="0 0 88 50" fill="none" xmlns="http://www.w3.org/2000/svg">
<path d="M27 10H61V20L53.5 17.5L44 17L32 17.5L27 20.5V10Z" fill="#FCD9D9"/>
<rect x="9.92468" y="28.0859" width="2.46234" height="16.0052" fill="#FCD9D9"/>
<rect x="75.1766" y="28.0859" width="2.46234" height="16.0052" fill="#FCD9D9"/>
<rect x="11.1564" y="19.4678" width="13.5429" height="6.15584" rx="2" fill="#FCD9D9"/>
<rect x="62.865" y="19.4678" width="13.5429" height="6.15584" rx="2" fill="#FCD9D9"/>
<rect x="24.6985" y="28.0859" width="3.69351" height="7.38701" fill="#FCD9D9"/>
<rect x="59.171" y="28.0859" width="3.69351" height="7.38701" fill="#FCD9D9"/>
<path d="M62.8937 48.0904V36.221H63.4205C63.6539 36.221 63.8431 36.0312 63.8431 35.7971C63.8982 32.6299 66.3196 30.1845 69.3357 30.1088C72.3517 30.033 74.8921 32.3539 75.098 35.3732C74.8647 35.3771 74.6786 35.5701 74.6825 35.8042C74.6864 36.0383 74.8787 36.2249 75.1121 36.221C75.1121 36.9021 75.1121 38.349 75.1121 40.1464C75.1121 40.3753 75.0868 40.689 75.0614 41.0197C74.9684 42.1812 74.8558 43.6253 75.5065 44.3318C75.7555 44.6003 76.1075 44.7485 76.4729 44.7387C76.8383 44.7485 77.1902 44.6003 77.4392 44.3318C78.09 43.6253 77.9773 42.1812 77.8843 41.0197C77.859 40.689 77.8336 40.3753 77.8336 40.1464C77.8336 38.349 77.8336 36.9021 77.8336 36.221C78.067 36.221 78.2562 36.0312 78.2562 35.7971C78.2562 35.563 78.067 35.3732 77.8336 35.3732V28.0933H82.1412C82.3336 28.0932 82.5016 27.9628 82.55 27.776C82.5984 27.5892 82.5149 27.3932 82.3469 27.2992L78.3379 25.0553V22.9386C78.3379 22.7045 78.1487 22.5147 77.9153 22.5147C77.6819 22.5147 77.4927 22.7045 77.4927 22.9386V24.8942H76.4391V22.9386C76.4391 19.4852 73.7852 19.0019 70.8327 18.9341C71.1627 18.2837 70.97 17.489 70.3791 17.0633C70.5042 16.8844 70.5711 16.6712 70.5707 16.4528C70.5712 16.022 70.315 15.6326 69.9199 15.4637V13.7879C69.9199 13.5537 69.7307 13.364 69.4973 13.364C69.2639 13.364 69.0747 13.5537 69.0747 13.7879V15.4637C68.6813 15.6341 68.4265 16.0229 68.4268 16.4528C68.4264 16.6712 68.4933 16.8844 68.6183 17.0633C68.2343 17.3449 68.0064 17.7928 68.0042 18.27C68.0052 18.4988 68.0592 18.7242 68.1619 18.9284C65.1137 18.9765 62.3077 19.3891 62.3077 22.9386C62.3077 22.9386 62.3077 23.5905 62.3077 24.8942H61.254V9.3114C61.254 9.07729 61.0648 8.8875 60.8314 8.8875H45.3618C45.6214 8.54988 45.7621 8.13543 45.7619 7.70904C45.761 7.038 45.4162 6.41457 44.8491 6.05862C45.1341 5.7188 45.2318 5.25895 45.1098 4.83205C44.9877 4.40515 44.6618 4.0672 44.2405 3.93061V1.42391C44.2405 1.18979 44.0513 1 43.8179 1C43.5846 1 43.3954 1.18979 43.3954 1.42391V3.93061C42.8455 4.11104 42.473 4.62484 42.4713 5.20516C42.4738 5.51619 42.5855 5.81638 42.7868 6.05297C42.3233 6.34147 42.0028 6.81307 41.9046 7.35137C41.8064 7.88967 41.9396 8.44454 42.2713 8.87902H26.7369C26.5035 8.87902 26.3143 9.06881 26.3143 9.30293V24.8716H25.2606V22.9386C25.2606 19.3693 22.4434 18.9624 19.4063 18.9087C19.5099 18.7046 19.5649 18.4792 19.5669 18.2502C19.565 17.7722 19.3358 17.3239 18.95 17.0435C19.076 16.865 19.1439 16.6518 19.1443 16.433C19.1433 16.0027 18.8876 15.614 18.4936 15.4439V13.7681C18.4936 13.534 18.3044 13.3442 18.071 13.3442C17.8376 13.3442 17.6484 13.534 17.6484 13.7681V15.4439C17.2543 15.614 16.9986 16.0027 16.9976 16.433C16.998 16.6518 17.0659 16.865 17.192 17.0435C16.8062 17.3239 16.5769 17.7722 16.575 18.2502C16.5763 18.4814 16.6323 18.709 16.7384 18.9143C13.7859 18.9821 11.1292 19.4795 11.1292 22.9188V24.8744H10.0699V22.9386C10.0699 22.7045 9.88073 22.5147 9.64734 22.5147C9.41395 22.5147 9.22475 22.7045 9.22475 22.9386V25.0694L5.21578 27.3133C5.04907 27.4089 4.96616 27.6041 5.01294 27.7909C5.06159 27.9773 5.2294 28.1073 5.42144 28.1074H9.73186V35.3732C9.49847 35.3732 9.30927 35.563 9.30927 35.7971C9.30927 36.0312 9.49847 36.221 9.73186 36.221C9.73186 36.9021 9.73186 38.349 9.73186 40.1464C9.73186 40.3753 9.70932 40.689 9.68115 41.0197C9.59099 42.1812 9.47549 43.6253 10.1263 44.3318C10.3765 44.6001 10.7292 44.7482 11.0954 44.7387C11.4616 44.7482 11.8143 44.6001 12.0646 44.3318C12.7125 43.6253 12.5998 42.1812 12.5069 41.0197C12.4815 40.689 12.4562 40.3753 12.4562 40.1464C12.4562 38.349 12.4562 36.9021 12.4562 36.221C12.6895 36.221 12.8787 36.0312 12.8787 35.7971C12.8787 35.563 12.6895 35.3732 12.4562 35.3732C12.6621 32.3539 15.2025 30.033 18.2185 30.1088C21.2346 30.1845 23.656 32.6299 23.7111 35.6558C23.7111 36.0256 23.9003 36.2154 24.1337 36.2154H24.6605V48.0848H22.1287C21.8954 48.0848 21.7062 48.2746 21.7062 48.5087C21.7062 48.7428 21.8954 48.9326 22.1287 48.9326H79.0338C79.2672 48.9326 79.4564 48.7428 79.4564 48.5087C79.4564 48.2746 79.2672 48.0848 79.0338 48.0848L62.8937 48.0904ZM75.1121 32.468C73.9608 30.4343 71.8091 29.1779 69.4776 29.1779C67.1461 29.1779 64.9944 30.4343 63.8431 32.468V28.0933H75.1121V32.468ZM76.8025 43.7722C76.7139 43.8684 76.5861 43.9184 76.456 43.9079C76.3258 43.9184 76.1981 43.8684 76.1094 43.7722C75.7094 43.3398 75.8277 41.9946 75.8869 41.1044C75.9151 40.7568 75.9404 40.4262 75.9404 40.1634C75.9404 38.3688 75.9404 36.9219 75.9404 36.2408H76.9518C76.9518 36.9219 76.9518 38.3688 76.9518 40.1634C76.9518 40.4262 76.9772 40.7568 77.0053 41.1044C77.1039 41.972 77.211 43.3172 76.8109 43.7496L76.8025 43.7722ZM75.9573 35.393V28.0933H76.9687V35.3732L75.9573 35.393ZM69.4776 16.2324C69.5701 16.2312 69.6542 16.2863 69.6904 16.3717C69.7266 16.4572 69.7078 16.5561 69.6428 16.6221C69.5777 16.6882 69.4794 16.7083 69.3937 16.673C69.3081 16.6378 69.2522 16.5541 69.2522 16.4613C69.2459 16.3973 69.2667 16.3335 69.3096 16.2857C69.3525 16.2378 69.4135 16.2103 69.4776 16.2098V16.2324ZM69.4776 17.6256C69.7411 17.6245 69.9792 17.7828 70.0808 18.0267C70.1825 18.2705 70.1275 18.5518 69.9416 18.7391C69.7557 18.9263 69.4756 18.9827 69.232 18.8818C68.9885 18.781 68.8296 18.5427 68.8296 18.2785C68.8235 18.1019 68.889 17.9304 69.0111 17.8032C69.1332 17.6759 69.3015 17.6037 69.4776 17.603V17.6256ZM69.3536 19.7791C73.326 19.7791 75.5742 19.926 75.5742 22.9471V24.9027H74.5233V22.9386C74.5233 22.7045 74.3341 22.5147 74.1007 22.5147C73.8673 22.5147 73.6781 22.7045 73.6781 22.9386V24.8942H72.6132V22.9386C72.6132 22.7045 72.424 22.5147 72.1906 22.5147C71.9572 22.5147 71.768 22.7045 71.768 22.9386V24.8942H70.7172V22.9386C70.7172 22.7045 70.528 22.5147 70.2946 22.5147C70.0612 22.5147 69.872 22.7045 69.872 22.9386V24.8942H68.8184V22.9386C68.8184 22.7045 68.6292 22.5147 68.3958 22.5147C68.1624 22.5147 67.9732 22.7045 67.9732 22.9386V24.8942H66.9195V22.9386C66.9195 22.7045 66.7303 22.5147 66.4969 22.5147C66.2635 22.5147 66.0743 22.7045 66.0743 22.9386V24.8942H65.0348V22.9386C65.0348 22.7045 64.8456 22.5147 64.6122 22.5147C64.3788 22.5147 64.1896 22.7045 64.1896 22.9386V24.8942H63.1359V22.9386C63.1416 19.9034 65.3897 19.7565 69.3536 19.7565V19.7791ZM43.8179 4.72473C44.0949 4.72473 44.3194 4.94995 44.3194 5.22777C44.3194 5.50559 44.0949 5.7308 43.8179 5.7308C43.541 5.7308 43.3165 5.50559 43.3165 5.22777C43.3103 5.09048 43.3604 4.95664 43.4551 4.85736C43.5499 4.75807 43.681 4.70198 43.8179 4.70212V4.72473ZM43.8179 6.62949C44.2637 6.62949 44.6656 6.89902 44.8359 7.31227C45.0062 7.72552 44.9115 8.20101 44.5959 8.51681C44.2802 8.83261 43.806 8.92645 43.3944 8.75453C42.9829 8.58261 42.7153 8.17882 42.7164 7.73164C42.7111 7.43517 42.8248 7.14901 43.032 6.93748C43.2391 6.72596 43.5224 6.60683 43.8179 6.60688V6.62949ZM27.1595 9.75792H60.4032V20.1126C60.2458 19.8852 60.0686 19.6725 59.8735 19.4767C57.7127 17.3261 53.3938 16.8428 49.1398 16.7524C49.4826 16.114 49.309 15.3201 48.7313 14.8844C48.8959 14.6194 48.9363 14.2954 48.842 13.9979C48.7477 13.7004 48.528 13.4594 48.2411 13.3385V11.7192C48.2411 11.4851 48.0519 11.2953 47.8185 11.2953C47.5851 11.2953 47.3959 11.4851 47.3959 11.7192V13.3385C47.1103 13.4609 46.892 13.7019 46.7978 13.9988C46.7037 14.2957 46.743 14.619 46.9057 14.8844C46.3374 15.317 46.1615 16.0967 46.4887 16.7326H45.2914H45.0801C45.2118 16.5102 45.2819 16.2565 45.2829 15.9978C45.2806 15.5349 45.0654 15.099 44.6998 14.8165C44.8053 14.6471 44.861 14.4512 44.8603 14.2513C44.8597 13.8216 44.6037 13.4336 44.2095 13.265V11.5892C44.2095 11.3551 44.0203 11.1653 43.787 11.1653C43.5536 11.1653 43.3644 11.3551 43.3644 11.5892V13.265C42.9718 13.435 42.7173 13.8225 42.7164 14.2513C42.7149 14.4509 42.7696 14.6468 42.8742 14.8165C42.5093 15.0993 42.2951 15.5353 42.2938 15.9978C42.2952 16.2561 42.3642 16.5095 42.4938 16.7326H42.2825H41.0852C41.4161 16.0972 41.2396 15.3149 40.6682 14.8844C40.8329 14.6194 40.8733 14.2954 40.779 13.9979C40.6847 13.7004 40.465 13.4594 40.178 13.3385V11.7192C40.178 11.4851 39.9888 11.2953 39.7555 11.2953C39.5221 11.2953 39.3329 11.4851 39.3329 11.7192V13.3385C39.0473 13.4609 38.8289 13.7019 38.7348 13.9988C38.6407 14.2957 38.68 14.619 38.8427 14.8844C38.4772 15.1654 38.2627 15.6009 38.2623 16.0628C38.2633 16.3036 38.3233 16.5404 38.437 16.7524C34.1801 16.8428 29.8612 17.3176 27.7032 19.4767C27.5081 19.6732 27.33 19.8859 27.1707 20.1126L27.1595 9.75792ZM47.8213 15.4213C48.0848 15.4202 48.3229 15.5785 48.4245 15.8223C48.5262 16.0662 48.4712 16.3474 48.2853 16.5347C48.0994 16.722 47.8192 16.7784 47.5757 16.6775C47.3322 16.5766 47.1733 16.3384 47.1733 16.0741C47.1748 15.7153 47.4636 15.4244 47.8213 15.4213ZM47.5959 14.3361C47.5959 14.2433 47.6518 14.1596 47.7374 14.1244C47.8231 14.0891 47.9214 14.1092 47.9865 14.1753C48.0515 14.2413 48.0703 14.3403 48.0341 14.4257C47.9979 14.5111 47.9138 14.5662 47.8213 14.565C47.7586 14.569 47.6971 14.5465 47.6517 14.5031C47.6062 14.4596 47.5809 14.3991 47.5818 14.3361H47.5959ZM43.7898 15.362C44.0532 15.3608 44.2914 15.5192 44.393 15.763C44.4946 16.0069 44.4397 16.2881 44.2538 16.4754C44.0679 16.6627 43.7877 16.7191 43.5442 16.6182C43.3007 16.5173 43.1418 16.2791 43.1418 16.0148C43.1432 15.6614 43.4235 15.3726 43.7757 15.362H43.7898ZM43.5644 14.2768C43.5644 14.1839 43.6203 14.1003 43.7059 14.065C43.7915 14.0298 43.8899 14.0499 43.9549 14.1159C44.02 14.182 44.0388 14.2809 44.0026 14.3663C43.9664 14.4518 43.8823 14.5068 43.7898 14.5057C43.7271 14.5096 43.6656 14.4872 43.6202 14.4437C43.5747 14.4003 43.5494 14.3398 43.5503 14.2768H43.5644ZM39.7583 15.4072C40.0217 15.406 40.2599 15.5644 40.3615 15.8082C40.4631 16.0521 40.4082 16.3333 40.2223 16.5206C40.0364 16.7079 39.7562 16.7643 39.5127 16.6634C39.2692 16.5625 39.1103 16.3243 39.1103 16.06C39.1191 15.7121 39.3974 15.4317 39.7442 15.4213L39.7583 15.4072ZM39.5329 14.322C39.5329 14.2291 39.5888 14.1455 39.6744 14.1102C39.76 14.075 39.8584 14.0951 39.9234 14.1611C39.9885 14.2272 40.0073 14.3261 39.9711 14.4116C39.9349 14.497 39.8508 14.552 39.7583 14.5509C39.698 14.5548 39.6387 14.5342 39.5937 14.4938C39.5487 14.4534 39.5217 14.3966 39.5188 14.3361L39.5329 14.322ZM27.1595 22.9386C27.1259 21.8802 27.5344 20.8558 28.2864 20.1126C30.8613 17.5465 37.4537 17.5917 42.2656 17.62H43.7334H45.2857C50.1004 17.5917 56.6929 17.5465 59.265 20.1126C60.017 20.8558 60.4254 21.8802 60.3919 22.9386V24.8942H59.3411V22.9386C59.3411 22.7045 59.1519 22.5147 58.9185 22.5147C58.6851 22.5147 58.4959 22.7045 58.4959 22.9386V24.8942H57.4422V22.9386C57.4422 22.7045 57.253 22.5147 57.0196 22.5147C56.7863 22.5147 56.5971 22.7045 56.5971 22.9386V24.8942H55.5462V22.9386C55.5462 22.7045 55.357 22.5147 55.1236 22.5147C54.8902 22.5147 54.701 22.7045 54.701 22.9386V24.8942H53.6474V22.9386C53.6474 22.7045 53.4582 22.5147 53.2248 22.5147C52.9914 22.5147 52.8022 22.7045 52.8022 22.9386V24.8942H51.7486V22.9386C51.7486 22.7045 51.5593 22.5147 51.326 22.5147C51.0926 22.5147 50.9034 22.7045 50.9034 22.9386V24.8942H49.8525V22.9386C49.8525 22.7045 49.6633 22.5147 49.4299 22.5147C49.1965 22.5147 49.0074 22.7045 49.0074 22.9386V24.8942H47.9537V22.9386C47.9537 22.7045 47.7645 22.5147 47.5311 22.5147C47.2977 22.5147 47.1085 22.7045 47.1085 22.9386V24.8942H46.0549V22.9386C46.0549 22.7045 45.8657 22.5147 45.6323 22.5147C45.3989 22.5147 45.2097 22.7045 45.2097 22.9386V24.8942H44.2405V22.9386C44.2405 22.7045 44.0513 22.5147 43.8179 22.5147C43.5846 22.5147 43.3954 22.7045 43.3954 22.9386V24.8942H42.3417V22.9386C42.3417 22.7045 42.1525 22.5147 41.9191 22.5147C41.6857 22.5147 41.4965 22.7045 41.4965 22.9386V24.8942H40.4429V22.9386C40.4429 22.7045 40.2537 22.5147 40.0203 22.5147C39.7869 22.5147 39.5977 22.7045 39.5977 22.9386V24.8942H38.5468V22.9386C38.5468 22.7045 38.3576 22.5147 38.1243 22.5147C37.8909 22.5147 37.7017 22.7045 37.7017 22.9386V24.8942H36.648V22.9386C36.648 22.7045 36.4588 22.5147 36.2254 22.5147C35.992 22.5147 35.8028 22.7045 35.8028 22.9386V24.8942H34.7492V22.9386C34.7492 22.7045 34.56 22.5147 34.3266 22.5147C34.0932 22.5147 33.904 22.7045 33.904 22.9386V24.8942H32.8531V22.9386C32.8531 22.7045 32.664 22.5147 32.4306 22.5147C32.1972 22.5147 32.008 22.7045 32.008 22.9386V24.8942H30.9543V22.9386C30.9543 22.7045 30.7651 22.5147 30.5317 22.5147C30.2983 22.5147 30.1091 22.7045 30.1091 22.9386V24.8942H29.0583V22.9386C29.0583 22.7045 28.8691 22.5147 28.6357 22.5147C28.4023 22.5147 28.2131 22.7045 28.2131 22.9386V24.8942H27.1595V22.9386ZM18.0738 16.2239C18.1998 16.2239 18.302 16.3264 18.302 16.4528C18.302 16.5793 18.1998 16.6817 18.0738 16.6817C17.9477 16.6817 17.8456 16.5793 17.8456 16.4528C17.8417 16.3897 17.864 16.3278 17.9072 16.2817C17.9505 16.2357 18.0107 16.2097 18.0738 16.2098V16.2239ZM18.0738 17.6172C18.4332 17.6172 18.7246 17.9094 18.7246 18.27C18.7246 18.6305 18.4332 18.9228 18.0738 18.9228C17.7144 18.9228 17.423 18.6305 17.423 18.27C17.42 18.0946 17.4871 17.9254 17.6094 17.8C17.7317 17.6747 17.899 17.6038 18.0738 17.603V17.6172ZM11.9772 22.9386C11.9772 19.9176 14.231 19.7706 18.1977 19.7706C22.1644 19.7706 24.4098 19.9176 24.4183 22.9245C24.4183 22.9245 24.4183 23.5811 24.4183 24.8942H23.3674V22.9386C23.3674 22.7045 23.1782 22.5147 22.9448 22.5147C22.7114 22.5147 22.5222 22.7045 22.5222 22.9386V24.8942H21.4686V22.9386C21.4686 22.7045 21.2794 22.5147 21.046 22.5147C20.8126 22.5147 20.6234 22.7045 20.6234 22.9386V24.8942H19.5726V22.9386C19.5726 22.7045 19.3834 22.5147 19.15 22.5147C18.9166 22.5147 18.7274 22.7045 18.7274 22.9386V24.8942H17.6765V22.9386C17.6765 22.7045 17.4873 22.5147 17.254 22.5147C17.0206 22.5147 16.8314 22.7045 16.8314 22.9386V24.8942H15.7777V22.9386C15.7777 22.7045 15.5885 22.5147 15.3551 22.5147C15.1217 22.5147 14.9325 22.7045 14.9325 22.9386V24.8942H13.8817V22.9386C13.8817 22.7045 13.6925 22.5147 13.4591 22.5147C13.2257 22.5147 13.0365 22.7045 13.0365 22.9386V24.8942H11.9829L11.9772 22.9386ZM11.0898 43.8994C10.9588 43.91 10.8302 43.86 10.7404 43.7637C10.3432 43.3314 10.4587 41.9862 10.5179 41.096C10.546 40.7484 10.5714 40.4177 10.5714 40.1549C10.5714 38.3603 10.5714 36.9134 10.5714 36.2323H11.5856C11.5856 36.9134 11.5856 38.3603 11.5856 40.1549C11.5856 40.4177 11.6138 40.7484 11.6391 41.096C11.7293 41.972 11.8364 43.3172 11.4391 43.7496C11.3494 43.86 11.2208 43.91 11.0898 43.8994ZM10.5939 35.3845V28.0933H11.6025V35.3732L10.5939 35.3845ZM23.7168 32.468C22.5654 30.4343 20.4137 29.1779 18.0822 29.1779C15.7508 29.1779 13.599 30.4343 12.4477 32.468V28.0933H23.7168V32.468ZM7.05546 27.2596L9.76567 25.742H77.7857L80.4987 27.2596H12.0167H7.05546ZM59.0734 28.1074V31.6344C58.2578 30.5071 56.9532 29.8399 55.5645 29.8399C54.1759 29.8399 52.8713 30.5071 52.0556 31.6344V28.0933L59.0734 28.1074ZM51.202 36.221C51.202 36.9021 51.202 38.349 51.202 40.1436C51.202 40.4064 51.2274 40.737 51.2555 41.0847C51.326 41.9749 51.433 43.3201 51.033 43.7524C50.9443 43.8486 50.8166 43.8986 50.6864 43.8881C50.5563 43.8986 50.4286 43.8486 50.3399 43.7524C49.9399 43.3201 50.0582 41.9749 50.1173 41.0847C50.1455 40.737 50.1709 40.4064 50.1709 40.1436C50.1709 38.349 50.1709 36.9021 50.1709 36.221H51.202ZM50.1906 35.3732V28.0933H51.202V35.3732H50.1906ZM49.3454 31.9396C48.2084 29.935 46.0862 28.6969 43.787 28.6969C41.4878 28.6969 39.3655 29.935 38.2285 31.9396V28.0961H49.3454V31.9396ZM37.3749 36.221C37.3749 36.9021 37.3749 38.349 37.3749 40.1436C37.3749 40.4064 37.403 40.737 37.4284 41.0847C37.4988 41.9749 37.6059 43.3201 37.2086 43.7524C37.1189 43.8487 36.9903 43.8987 36.8593 43.8881C36.7283 43.8987 36.5997 43.8487 36.51 43.7524C36.1127 43.3201 36.2282 41.9749 36.2874 41.0847C36.3156 40.737 36.3409 40.4064 36.3409 40.1436C36.3409 38.349 36.3409 36.9021 36.3409 36.221H37.3749ZM36.3635 35.3732V28.0933H37.372V35.3732H36.3635ZM35.5183 28.0961V31.623C34.702 30.4957 33.397 29.8286 32.008 29.8286C30.619 29.8286 29.3139 30.4957 28.4977 31.623V28.0933L35.5183 28.0961ZM26.6918 48.0904H25.4945V36.221H26.6918V48.0904ZM25.0719 35.3732H24.545V28.0933H27.644V35.3732H25.0719ZM60.006 48.0904H27.537V36.221H28.0666C28.3 36.221 28.4892 36.0312 28.4892 35.7971V34.1976C28.4892 32.2528 30.0608 30.6763 31.9995 30.6763C33.9382 30.6763 35.5098 32.2528 35.5098 34.1976V35.3732C35.2764 35.3732 35.0872 35.563 35.0872 35.7971C35.0872 36.0312 35.2764 36.221 35.5098 36.221C35.5098 36.9021 35.5098 38.349 35.5098 40.1464C35.5098 40.3753 35.4873 40.689 35.4591 41.0197C35.369 42.1812 35.2535 43.6253 35.9043 44.3318C36.1545 44.6001 36.5072 44.7482 36.8734 44.7387C37.2396 44.7482 37.5923 44.6001 37.8425 44.3318C38.4905 43.6253 38.3778 42.1812 38.2848 41.0197C38.2595 40.689 38.2341 40.3753 38.2341 40.1464C38.2341 38.349 38.2341 36.9021 38.2341 36.221C38.4675 36.221 38.6567 36.0312 38.6567 35.7971C38.6567 35.563 38.4675 35.3732 38.2341 35.3732V35.1189C38.2341 33.1268 39.2936 31.2861 41.0134 30.2901C42.7332 29.2941 44.852 29.2941 46.5718 30.2901C48.2916 31.2861 49.3511 33.1268 49.3511 35.1189V35.3732C49.1177 35.3732 48.9285 35.563 48.9285 35.7971C48.9285 36.0312 49.1177 36.221 49.3511 36.221C49.3511 36.9021 49.3511 38.349 49.3511 40.1464C49.3511 40.3753 49.3257 40.689 49.3003 41.0197C49.2074 42.1812 49.0947 43.6253 49.7455 44.3318C49.9944 44.6003 50.3464 44.7485 50.7118 44.7387C51.0772 44.7485 51.4292 44.6003 51.6781 44.3318C52.3289 43.6253 52.2162 42.1812 52.1232 41.0197C52.0979 40.689 52.0725 40.3753 52.0725 40.1464C52.0725 38.349 52.0725 36.9021 52.0725 36.221C52.3059 36.221 52.4951 36.0312 52.4951 35.7971C52.4951 35.563 52.3059 35.3732 52.0725 35.3732V34.1919C52.0363 32.9106 52.6971 31.7108 53.7977 31.0594C54.8982 30.4081 56.2647 30.4081 57.3652 31.0594C58.4658 31.7108 59.1265 32.9106 59.0903 34.1919V35.7915C59.0903 36.0256 59.2795 36.2154 59.5129 36.2154H60.0426L60.006 48.0904ZM62.0485 48.0904H60.8511V36.221H62.0485V48.0904ZM60.4285 35.3732H59.8989V28.0933H62.9979V35.3732H60.4285Z" fill="#666666" stroke="#666666" stroke-width="0.157303"/>
<path d="M38.5647 46.3184H35.9262C35.6922 46.3184 35.5024 46.5135 35.5024 46.7541C35.5024 46.9948 35.6922 47.1899 35.9262 47.1899H38.5647C38.7987 47.1899 38.9884 46.9948 38.9884 46.7541C38.9884 46.5135 38.7987 46.3184 38.5647 46.3184Z" fill="#666666"/>
<path d="M36.7823 46.3183H38.5781C38.8041 46.3183 38.9874 46.1232 38.9874 45.8825C38.9874 45.6419 38.8041 45.4468 38.5781 45.4468H36.7823C36.5562 45.4468 36.3729 45.6419 36.3729 45.8825C36.3729 46.1232 36.5562 46.3183 36.7823 46.3183Z" fill="#666666"/>
<path d="M9.35889 46.7542C9.35889 46.9948 9.5486 47.1899 9.78263 47.1899H12.4211C12.6552 47.1899 12.8449 46.9948 12.8449 46.7542C12.8449 46.5136 12.6552 46.3186 12.4211 46.3186H9.79676C9.68195 46.3147 9.5705 46.3588 9.48795 46.4409C9.4054 46.5231 9.35882 46.6361 9.35889 46.7542Z" fill="#666666"/>
<path d="M10.6387 46.3183H12.4345C12.6606 46.3183 12.8439 46.1232 12.8439 45.8825C12.8439 45.6419 12.6606 45.4468 12.4345 45.4468H10.6387C10.4127 45.4468 10.2294 45.6419 10.2294 45.8825C10.2294 46.1232 10.4127 46.3183 10.6387 46.3183Z" fill="#666666"/>
<path d="M52.5093 46.3184H49.8715C49.6373 46.3184 49.4474 46.5135 49.4474 46.7541C49.4474 46.9948 49.6373 47.1899 49.8715 47.1899H52.5093C52.7435 47.1899 52.9334 46.9948 52.9334 46.7541C52.9334 46.5135 52.7435 46.3184 52.5093 46.3184Z" fill="#666666"/>
<path d="M49.8563 46.3183H51.653C51.8788 46.3183 52.0619 46.1232 52.0619 45.8825C52.0619 45.6419 51.8788 45.4468 51.653 45.4468H49.8563C49.6305 45.4468 49.4474 45.6419 49.4474 45.8825C49.4474 46.1232 49.6305 46.3183 49.8563 46.3183Z" fill="#666666"/>
<path d="M75.5911 46.7541C75.5911 46.9948 75.7809 47.1899 76.0152 47.1899H78.653C78.8872 47.1899 79.0771 46.9948 79.0771 46.7541C79.0771 46.5135 78.8872 46.3184 78.653 46.3184H76.0152C75.7809 46.3184 75.5911 46.5135 75.5911 46.7541Z" fill="#666666"/>
<path d="M75.9891 46.3183H77.7966C78.0225 46.3183 78.2056 46.1232 78.2056 45.8825C78.2056 45.6419 78.0225 45.4468 77.7966 45.4468H76C75.7742 45.4468 75.5911 45.6419 75.5911 45.8825C75.5911 46.1232 75.7742 46.3183 76 46.3183H75.9891Z" fill="#666666"/>
<line x1="0.597437" y1="48.4026" x2="87.4026" y2="48.4026" stroke="#666666" stroke-width="1.19487" stroke-linecap="round" stroke-linejoin="round"/>
</svg>
