<svg width="88" height="49" viewBox="0 0 88 49" fill="none" xmlns="http://www.w3.org/2000/svg">
<line x1="0.597437" y1="48.4026" x2="87.4026" y2="48.4026" stroke="#666666" stroke-width="1.19487" stroke-linecap="round" stroke-linejoin="round"/>
<path d="M44.4171 3.46875L48.6754 16.4305H40.1587L44.4171 3.46875Z" fill="#FCD9D9"/>
<path d="M18.2584 21.3682L22.5168 31.861H14L18.2584 21.3682Z" fill="#FCD9D9"/>
<path d="M70.5755 20.751L74.8339 31.2438H66.3171L70.5755 20.751Z" fill="#FCD9D9"/>
<rect x="16.4331" y="21.9858" width="3.65004" height="2.4689" fill="#FCD9D9"/>
<rect x="43.2" y="5.93799" width="3.65004" height="2.4689" rx="1.23445" fill="#FCD9D9"/>
<rect x="68.7502" y="20.751" width="3.65004" height="2.4689" fill="#FCD9D9"/>
<rect x="22.5164" y="30.627" width="17.0335" height="3.70334" fill="#FCD9D9"/>
<rect x="49.2834" y="30.627" width="17.0335" height="3.70334" fill="#FCD9D9"/>
<rect x="26.167" y="44.2056" width="3.65004" height="3.70334" fill="#FCD9D9"/>
<rect x="33.4668" y="44.2056" width="3.65004" height="3.70334" fill="#FCD9D9"/>
<rect x="51.7173" y="44.2056" width="3.65004" height="3.70334" fill="#FCD9D9"/>
<rect x="59.0173" y="44.2056" width="3.65004" height="3.70334" fill="#FCD9D9"/>
<rect x="14" y="31.8613" width="8.51676" height="16.0478" fill="#FCD9D9"/>
<rect x="66.3171" y="30.627" width="8.51676" height="17.2823" fill="#FCD9D9"/>
<rect x="40.7668" y="30.627" width="8.51676" height="17.2823" fill="#FCD9D9"/>
<path fill-rule="evenodd" clip-rule="evenodd" d="M16.6147 47.7366V44.0725C16.6147 43.3867 17.3617 42.8325 18.2877 42.8325C19.211 42.8325 19.9615 43.3867 19.9615 44.0725V47.7366H16.6147Z" stroke="#666666" stroke-linecap="round" stroke-linejoin="round"/>
<path fill-rule="evenodd" clip-rule="evenodd" d="M16.6147 40.5176V35.0131C16.6147 34.2762 17.3617 33.6807 18.2877 33.6807C19.211 33.6807 19.9615 34.2762 19.9615 35.0131V40.5176H16.6147Z" stroke="#666666" stroke-linecap="round" stroke-linejoin="round"/>
<path fill-rule="evenodd" clip-rule="evenodd" d="M33.272 47.4819H37.0149V44.127H33.272V47.4819Z" stroke="#666666"/>
<path fill-rule="evenodd" clip-rule="evenodd" d="M33.1167 41.0062V38.0263C33.1167 37.4067 33.945 36.9033 34.9678 36.9033C35.9887 36.9033 36.8207 37.4067 36.8207 38.0263V41.0062H33.1167Z" stroke="#666666" stroke-linecap="round" stroke-linejoin="round"/>
<path fill-rule="evenodd" clip-rule="evenodd" d="M25.9287 47.4809H29.6734V44.127H25.9287V47.4809Z" stroke="#666666"/>
<path fill-rule="evenodd" clip-rule="evenodd" d="M25.9739 41.0052V38.0253C25.9739 37.4057 26.8022 36.9023 27.8232 36.9023C28.8459 36.9023 29.6743 37.4057 29.6743 38.0253V41.0052H25.9739Z" stroke="#666666" stroke-linecap="round" stroke-linejoin="round"/>
<path fill-rule="evenodd" clip-rule="evenodd" d="M72.2996 47.7366V44.0725C72.2996 43.3867 71.5526 42.8325 70.6266 42.8325C69.7052 42.8325 68.9546 43.3867 68.9546 44.0725V47.7366H70.3192H72.2996Z" stroke="#666666" stroke-linecap="round" stroke-linejoin="round"/>
<path fill-rule="evenodd" clip-rule="evenodd" d="M72.2996 40.1839V34.948C72.2996 34.2472 71.5526 33.6807 70.6266 33.6807C69.7052 33.6807 68.9546 34.2472 68.9546 34.948V40.1839H72.2996Z" stroke="#666666" stroke-linecap="round" stroke-linejoin="round"/>
<path fill-rule="evenodd" clip-rule="evenodd" d="M52.1909 47.7365H55.9338V44.127H52.1909V47.7365Z" stroke="#666666"/>
<path fill-rule="evenodd" clip-rule="evenodd" d="M55.798 41.0062V38.0263C55.798 37.4067 54.9697 36.9033 53.9469 36.9033C52.926 36.9033 52.0977 37.4067 52.0977 38.0263V41.0062H55.798Z" stroke="#666666" stroke-linecap="round" stroke-linejoin="round"/>
<path fill-rule="evenodd" clip-rule="evenodd" d="M59.1838 47.7365H62.9267V44.127H59.1838V47.7365Z" stroke="#666666"/>
<path fill-rule="evenodd" clip-rule="evenodd" d="M62.9427 41.0052V38.0253C62.9427 37.4057 62.1125 36.9023 61.0916 36.9023C60.0706 36.9023 59.2405 37.4057 59.2405 38.0253V41.0052H62.9427Z" stroke="#666666" stroke-linecap="round" stroke-linejoin="round"/>
<path fill-rule="evenodd" clip-rule="evenodd" d="M42.7903 47.6424H45.7808V42.9238H42.7903V47.6424Z" stroke="#666666"/>
<path fill-rule="evenodd" clip-rule="evenodd" d="M46.1262 40.1834V34.9475C46.1262 34.2466 45.3811 33.6831 44.4569 33.6831C43.5354 33.6831 42.7903 34.2466 42.7903 34.9475V40.1834H46.1262Z" stroke="#666666" stroke-linecap="round" stroke-linejoin="round"/>
<path fill-rule="evenodd" clip-rule="evenodd" d="M14 47.7368H22.6064V31.4937H14V47.7368Z" stroke="#666666" stroke-linecap="round" stroke-linejoin="round"/>
<path fill-rule="evenodd" clip-rule="evenodd" d="M22.6064 31.4931H14L16.646 24.2739H19.9622L22.6064 31.4931Z" stroke="#666666" stroke-linecap="round" stroke-linejoin="round"/>
<path fill-rule="evenodd" clip-rule="evenodd" d="M16.6899 24.2746H19.9173V21.8682H16.6899V24.2746Z" stroke="#666666" stroke-linecap="round" stroke-linejoin="round"/>
<path fill-rule="evenodd" clip-rule="evenodd" d="M14 40.5176H22.6064V31.4937H14V40.5176Z" stroke="#666666" stroke-linecap="round" stroke-linejoin="round"/>
<path fill-rule="evenodd" clip-rule="evenodd" d="M40.1182 47.7366H48.841V16.7944H40.1182V47.7366Z" stroke="#666666" stroke-linecap="round" stroke-linejoin="round"/>
<path fill-rule="evenodd" clip-rule="evenodd" d="M48.841 16.7945H40.1182L42.7967 8.1626H46.1598L48.841 16.7945Z" stroke="#666666" stroke-linecap="round" stroke-linejoin="round"/>
<path fill-rule="evenodd" clip-rule="evenodd" d="M42.7903 8.16228H46.1669V5.49219H42.7903V8.16228Z" stroke="#666666" stroke-linecap="round" stroke-linejoin="round"/>
<path d="M44.4785 5.49193V1" stroke="#666666" stroke-linecap="round" stroke-linejoin="round"/>
<path fill-rule="evenodd" clip-rule="evenodd" d="M46.1262 31.0316V27.2957C46.1262 26.5928 45.3811 26.0293 44.4569 26.0293C43.5354 26.0293 42.7903 26.5928 42.7903 27.2957V31.0316H46.1262Z" stroke="#666666" stroke-linecap="round" stroke-linejoin="round"/>
<path fill-rule="evenodd" clip-rule="evenodd" d="M40.0964 40.1836H48.8193V31.0312H40.0964V40.1836Z" stroke="#666666" stroke-linecap="round" stroke-linejoin="round"/>
<path fill-rule="evenodd" clip-rule="evenodd" d="M45.9889 21.569C45.9889 22.5055 45.3053 23.2635 44.4616 23.2635C43.6151 23.2635 42.9297 22.5055 42.9297 21.569C42.9297 20.6315 43.6151 19.8745 44.4616 19.8745C45.3053 19.8745 45.9889 20.6315 45.9889 21.569Z" stroke="#666666" stroke-linecap="round" stroke-linejoin="round"/>
<path fill-rule="evenodd" clip-rule="evenodd" d="M66.2551 31.0323H74.9997L72.313 23.8252H68.94L66.2551 31.0323Z" stroke="#666666" stroke-linecap="round" stroke-linejoin="round"/>
<path fill-rule="evenodd" clip-rule="evenodd" d="M68.9272 23.8249H72.3274V21.1548H68.9272V23.8249Z" stroke="#666666" stroke-linecap="round" stroke-linejoin="round"/>
<path fill-rule="evenodd" clip-rule="evenodd" d="M66.2551 40.1835H74.9997V31.0322H66.2551V40.1835Z" stroke="#666666" stroke-linecap="round" stroke-linejoin="round"/>
<path fill-rule="evenodd" clip-rule="evenodd" d="M66.2551 47.7362H74.9997V40.1831H66.2551V47.7362Z" stroke="#666666" stroke-linecap="round" stroke-linejoin="round"/>
<path fill-rule="evenodd" clip-rule="evenodd" d="M49.0422 47.7366H66.2551V31.0322H49.0422V47.7366Z" stroke="#666666" stroke-linecap="round" stroke-linejoin="round"/>
<path fill-rule="evenodd" clip-rule="evenodd" d="M48.8201 34.8604H66.2558V31.0332H48.8201V34.8604Z" stroke="#666666" stroke-linecap="round" stroke-linejoin="round"/>
<path fill-rule="evenodd" clip-rule="evenodd" d="M48.8201 41.0067H66.2558V34.8604H48.8201V41.0067Z" stroke="#666666" stroke-linecap="round" stroke-linejoin="round"/>
<path fill-rule="evenodd" clip-rule="evenodd" d="M22.6606 47.7366H40.0964V31.0322H22.6606V47.7366Z" stroke="#666666" stroke-linecap="round" stroke-linejoin="round"/>
<path fill-rule="evenodd" clip-rule="evenodd" d="M22.6597 34.8604H40.0972V31.0332H22.6597V34.8604Z" stroke="#666666" stroke-linecap="round" stroke-linejoin="round"/>
<path fill-rule="evenodd" clip-rule="evenodd" d="M22.6597 41.0067H40.0972V34.8604H22.6597V41.0067Z" stroke="#666666" stroke-linecap="round" stroke-linejoin="round"/>
</svg>
