<svg width="88" height="49" viewBox="0 0 88 49" fill="none" xmlns="http://www.w3.org/2000/svg">
<line x1="0.597437" y1="48.4026" x2="87.4026" y2="48.4026" stroke="#666666" stroke-width="1.19487" stroke-linecap="round" stroke-linejoin="round"/>
<rect x="27.3999" y="9.21338" width="33" height="5.86667" fill="#FCD9D9"/>
<rect x="27.3999" y="20.9468" width="11" height="26.9867" fill="#FCD9D9"/>
<rect x="49.3999" y="20.9468" width="11" height="26.9867" fill="#FCD9D9"/>
<path d="M28.1187 27.3364H33.5791" stroke="#666666" stroke-linecap="round" stroke-linejoin="round"/>
<path d="M28.1187 38.1592H33.5791" stroke="#666666" stroke-linecap="round" stroke-linejoin="round"/>
<path d="M27.7992 46.7025V22.3942L23 16.7325V14.7095H54.2129" stroke="#666666" stroke-linecap="round" stroke-linejoin="round"/>
<path d="M59.9226 31.3282V23.1661L65.1332 17.658V15.21H60.0779V9.5139H57.0444V4.28407C52.6751 2.09469 48.3133 1 43.9592 1C39.6052 1 35.2512 2.09469 30.8974 4.28407V9.5139H27.7781V14.6127" stroke="#666666" stroke-linecap="round" stroke-linejoin="round"/>
<path d="M32.8967 9.29785H49.9606" stroke="#666666" stroke-linecap="round" stroke-linejoin="round"/>
<path d="M36.3096 17.9565H41.77" stroke="#666666" stroke-linecap="round" stroke-linejoin="round"/>
<path d="M49.2786 27.3364H54.739" stroke="#666666" stroke-linecap="round" stroke-linejoin="round"/>
<path d="M49.2786 38.1592H54.739" stroke="#666666" stroke-linecap="round" stroke-linejoin="round"/>
<path d="M38.6987 47.745V22.7077C39.8193 21.2594 41.585 20.5179 43.9958 20.4831C46.4066 20.4483 48.1722 21.1899 49.2928 22.7077V47.9336" stroke="#666666" stroke-linecap="round" stroke-linejoin="round"/>
<path d="M41.0039 47.5992V24.3299C41.8431 23.2342 43.1653 22.6732 44.9706 22.6469C46.7759 22.6206 48.0982 23.1816 48.9374 24.3299" stroke="#666666" stroke-linecap="round" stroke-linejoin="round"/>
<path d="M59.7983 37.7983V47.0355" stroke="#666666" stroke-linecap="round"/>
<path d="M59.7983 33.873V35.2598" stroke="#666666" stroke-linecap="round"/>
</svg>
